<svg width="24" height="24" viewBox="0 0 24 24" fill="none" xmlns="http://www.w3.org/2000/svg">
<g clip-path="url(#clip0_7390_465)">
<path d="M9.00023 1.375V3.375H15.0002V1.375H17.0003V3.375H21.0002C21.5525 3.375 22.0003 3.82272 22.0003 4.375V20.375C22.0003 20.9273 21.5525 21.375 21.0002 21.375H3.00025C2.44796 21.375 2.00024 20.9273 2.00024 20.375V4.375C2.00024 3.82272 2.44796 3.375 3.00025 3.375H7.00025V1.375H9.00023ZM20.0003 8.37503H4.00025V19.375H20.0003V8.37503ZM15.0358 10.511L16.45 11.9253L11.5003 16.875L7.9647 13.3395L9.3789 11.9253L11.5003 14.0466L15.0358 10.511Z" fill="#D50606"/>
</g>
<defs>
<clipPath id="clip0_7390_465">
<rect width="24" height="24.75" fill="white"/>
</clipPath>
</defs>
</svg>
